<svg class="rich-terminal" viewBox="0 0 1238 782.0" xmlns="http://www.w3.org/2000/svg">
    <!-- Generated with Rich https://www.textualize.io -->
    <style>

    @font-face {
        font-family: "Fira Code";
        src: local("FiraCode-Regular"),
                url("https://cdnjs.cloudflare.com/ajax/libs/firacode/6.2.0/woff2/FiraCode-Regular.woff2") format("woff2"),
                url("https://cdnjs.cloudflare.com/ajax/libs/firacode/6.2.0/woff/FiraCode-Regular.woff") format("woff");
        font-style: normal;
        font-weight: 400;
    }
    @font-face {
        font-family: "Fira Code";
        src: local("FiraCode-Bold"),
                url("https://cdnjs.cloudflare.com/ajax/libs/firacode/6.2.0/woff2/FiraCode-Bold.woff2") format("woff2"),
                url("https://cdnjs.cloudflare.com/ajax/libs/firacode/6.2.0/woff/FiraCode-Bold.woff") format("woff");
        font-style: bold;
        font-weight: 700;
    }

    .terminal-matrix {
        font-family: Fira Code, monospace;
        font-size: 20px;
        line-height: 24.4px;
        font-variant-east-asian: full-width;
    }

    .terminal-title {
        font-size: 18px;
        font-weight: bold;
        font-family: arial;
    }

    .terminal-r1 { fill: #c5c8c6 }
.terminal-r2 { fill: #e0e0e0 }
.terminal-r3 { fill: #a0a3a6 }
.terminal-r4 { fill: #c5c6c7 }
.terminal-r5 { fill: #a5a5a5;font-weight: bold }
.terminal-r6 { fill: #58d1eb }
.terminal-r7 { fill: #a5a5a5 }
.terminal-r8 { fill: #0053aa }
.terminal-r9 { fill: #fea62b }
.terminal-r10 { fill: #9e9e9e }
.terminal-r11 { fill: #e0e0e0;font-weight: bold }
.terminal-r12 { fill: #ffa62b;font-weight: bold }
.terminal-r13 { fill: #495259 }
    </style>

    <defs>
    <clipPath id="terminal-clip-terminal">
      <rect x="0" y="0" width="1219.0" height="731.0" />
    </clipPath>
    <clipPath id="terminal-line-0">
    <rect x="0" y="1.5" width="1220" height="24.65"/>
            </clipPath>
<clipPath id="terminal-line-1">
    <rect x="0" y="25.9" width="1220" height="24.65"/>
            </clipPath>
<clipPath id="terminal-line-2">
    <rect x="0" y="50.3" width="1220" height="24.65"/>
            </clipPath>
<clipPath id="terminal-line-3">
    <rect x="0" y="74.7" width="1220" height="24.65"/>
            </clipPath>
<clipPath id="terminal-line-4">
    <rect x="0" y="99.1" width="1220" height="24.65"/>
            </clipPath>
<clipPath id="terminal-line-5">
    <rect x="0" y="123.5" width="1220" height="24.65"/>
            </clipPath>
<clipPath id="terminal-line-6">
    <rect x="0" y="147.9" width="1220" height="24.65"/>
            </clipPath>
<clipPath id="terminal-line-7">
    <rect x="0" y="172.3" width="1220" height="24.65"/>
            </clipPath>
<clipPath id="terminal-line-8">
    <rect x="0" y="196.7" width="1220" height="24.65"/>
            </clipPath>
<clipPath id="terminal-line-9">
    <rect x="0" y="221.1" width="1220" height="24.65"/>
            </clipPath>
<clipPath id="terminal-line-10">
    <rect x="0" y="245.5" width="1220" height="24.65"/>
            </clipPath>
<clipPath id="terminal-line-11">
    <rect x="0" y="269.9" width="1220" height="24.65"/>
            </clipPath>
<clipPath id="terminal-line-12">
    <rect x="0" y="294.3" width="1220" height="24.65"/>
            </clipPath>
<clipPath id="terminal-line-13">
    <rect x="0" y="318.7" width="1220" height="24.65"/>
            </clipPath>
<clipPath id="terminal-line-14">
    <rect x="0" y="343.1" width="1220" height="24.65"/>
            </clipPath>
<clipPath id="terminal-line-15">
    <rect x="0" y="367.5" width="1220" height="24.65"/>
            </clipPath>
<clipPath id="terminal-line-16">
    <rect x="0" y="391.9" width="1220" height="24.65"/>
            </clipPath>
<clipPath id="terminal-line-17">
    <rect x="0" y="416.3" width="1220" height="24.65"/>
            </clipPath>
<clipPath id="terminal-line-18">
    <rect x="0" y="440.7" width="1220" height="24.65"/>
            </clipPath>
<clipPath id="terminal-line-19">
    <rect x="0" y="465.1" width="1220" height="24.65"/>
            </clipPath>
<clipPath id="terminal-line-20">
    <rect x="0" y="489.5" width="1220" height="24.65"/>
            </clipPath>
<clipPath id="terminal-line-21">
    <rect x="0" y="513.9" width="1220" height="24.65"/>
            </clipPath>
<clipPath id="terminal-line-22">
    <rect x="0" y="538.3" width="1220" height="24.65"/>
            </clipPath>
<clipPath id="terminal-line-23">
    <rect x="0" y="562.7" width="1220" height="24.65"/>
            </clipPath>
<clipPath id="terminal-line-24">
    <rect x="0" y="587.1" width="1220" height="24.65"/>
            </clipPath>
<clipPath id="terminal-line-25">
    <rect x="0" y="611.5" width="1220" height="24.65"/>
            </clipPath>
<clipPath id="terminal-line-26">
    <rect x="0" y="635.9" width="1220" height="24.65"/>
            </clipPath>
<clipPath id="terminal-line-27">
    <rect x="0" y="660.3" width="1220" height="24.65"/>
            </clipPath>
<clipPath id="terminal-line-28">
    <rect x="0" y="684.7" width="1220" height="24.65"/>
            </clipPath>
    </defs>

    <rect fill="#292929" stroke="rgba(255,255,255,0.35)" stroke-width="1" x="1" y="1" width="1236" height="780" rx="8"/><text class="terminal-title" fill="#c5c8c6" text-anchor="middle" x="618" y="27">Quilt&#160;HVAC</text>
            <g transform="translate(26,22)">
            <circle cx="0" cy="0" r="7" fill="#ff5f57"/>
            <circle cx="22" cy="0" r="7" fill="#febc2e"/>
            <circle cx="44" cy="0" r="7" fill="#28c840"/>
            </g>
        
    <g transform="translate(9, 41)" clip-path="url(#terminal-clip-terminal)">
    <rect fill="#242f38" x="0" y="1.5" width="12.2" height="24.65" shape-rendering="crispEdges"/><rect fill="#242f38" x="12.2" y="1.5" width="12.2" height="24.65" shape-rendering="crispEdges"/><rect fill="#242f38" x="24.4" y="1.5" width="61" height="24.65" shape-rendering="crispEdges"/><rect fill="#242f38" x="85.4" y="1.5" width="12.2" height="24.65" shape-rendering="crispEdges"/><rect fill="#242f38" x="97.6" y="1.5" width="366" height="24.65" shape-rendering="crispEdges"/><rect fill="#242f38" x="463.6" y="1.5" width="146.4" height="24.65" shape-rendering="crispEdges"/><rect fill="#242f38" x="610" y="1.5" width="36.6" height="24.65" shape-rendering="crispEdges"/><rect fill="#242f38" x="646.6" y="1.5" width="73.2" height="24.65" shape-rendering="crispEdges"/><rect fill="#242f38" x="719.8" y="1.5" width="378.2" height="24.65" shape-rendering="crispEdges"/><rect fill="#2c363f" x="1098" y="1.5" width="12.2" height="24.65" shape-rendering="crispEdges"/><rect fill="#2c363f" x="1110.2" y="1.5" width="97.6" height="24.65" shape-rendering="crispEdges"/><rect fill="#2c363f" x="1207.8" y="1.5" width="12.2" height="24.65" shape-rendering="crispEdges"/><rect fill="#1e1e1e" x="0" y="25.9" width="12.2" height="24.65" shape-rendering="crispEdges"/><rect fill="#1e1e1e" x="12.2" y="25.9" width="158.6" height="24.65" shape-rendering="crispEdges"/><rect fill="#1e1e1e" x="170.8" y="25.9" width="170.8" height="24.65" shape-rendering="crispEdges"/><rect fill="#1e1e1e" x="341.6" y="25.9" width="707.6" height="24.65" shape-rendering="crispEdges"/><rect fill="#1e1e1e" x="1049.2" y="25.9" width="170.8" height="24.65" shape-rendering="crispEdges"/><rect fill="#1e1e1e" x="0" y="50.3" width="12.2" height="24.65" shape-rendering="crispEdges"/><rect fill="#1e1e1e" x="12.2" y="50.3" width="24.4" height="24.65" shape-rendering="crispEdges"/><rect fill="#1e1e1e" x="36.6" y="50.3" width="402.6" height="24.65" shape-rendering="crispEdges"/><rect fill="#1e1e1e" x="439.2" y="50.3" width="231.8" height="24.65" shape-rendering="crispEdges"/><rect fill="#1e1e1e" x="671" y="50.3" width="12.2" height="24.65" shape-rendering="crispEdges"/><rect fill="#1e1e1e" x="683.2" y="50.3" width="24.4" height="24.65" shape-rendering="crispEdges"/><rect fill="#1e1e1e" x="707.6" y="50.3" width="317.2" height="24.65" shape-rendering="crispEdges"/><rect fill="#1e1e1e" x="1024.8" y="50.3" width="183" height="24.65" shape-rendering="crispEdges"/><rect fill="#1e1e1e" x="1207.8" y="50.3" width="12.2" height="24.65" shape-rendering="crispEdges"/><rect fill="#1e1e1e" x="0" y="74.7" width="12.2" height="24.65" shape-rendering="crispEdges"/><rect fill="#1e1e1e" x="12.2" y="74.7" width="12.2" height="24.65" shape-rendering="crispEdges"/><rect fill="#1e1e1e" x="24.4" y="74.7" width="634.4" height="24.65" shape-rendering="crispEdges"/><rect fill="#1e1e1e" x="658.8" y="74.7" width="12.2" height="24.65" shape-rendering="crispEdges"/><rect fill="#1e1e1e" x="671" y="74.7" width="12.2" height="24.65" shape-rendering="crispEdges"/><rect fill="#1e1e1e" x="683.2" y="74.7" width="12.2" height="24.65" shape-rendering="crispEdges"/><rect fill="#1e1e1e" x="695.4" y="74.7" width="500.2" height="24.65" shape-rendering="crispEdges"/><rect fill="#1e1e1e" x="1195.6" y="74.7" width="12.2" height="24.65" shape-rendering="crispEdges"/><rect fill="#1e1e1e" x="1207.8" y="74.7" width="12.2" height="24.65" shape-rendering="crispEdges"/><rect fill="#1e1e1e" x="0" y="99.1" width="12.2" height="24.65" shape-rendering="crispEdges"/><rect fill="#1e1e1e" x="12.2" y="99.1" width="12.2" height="24.65" shape-rendering="crispEdges"/><rect fill="#1e1e1e" x="24.4" y="99.1" width="24.4" height="24.65" shape-rendering="crispEdges"/><rect fill="#1e1e1e" x="48.8" y="99.1" width="585.6" height="24.65" shape-rendering="crispEdges"/><rect fill="#1e1e1e" x="634.4" y="99.1" width="24.4" height="24.65" shape-rendering="crispEdges"/><rect fill="#1e1e1e" x="658.8" y="99.1" width="12.2" height="24.65" shape-rendering="crispEdges"/><rect fill="#1e1e1e" x="671" y="99.1" width="12.2" height="24.65" shape-rendering="crispEdges"/><rect fill="#1e1e1e" x="683.2" y="99.1" width="12.2" height="24.65" shape-rendering="crispEdges"/><rect fill="#1e1e1e" x="695.4" y="99.1" width="24.4" height="24.65" shape-rendering="crispEdges"/><rect fill="#1e1e1e" x="719.8" y="99.1" width="97.6" height="24.65" shape-rendering="crispEdges"/><rect fill="#1e1e1e" x="817.4" y="99.1" width="244" height="24.65" shape-rendering="crispEdges"/><rect fill="#1e1e1e" x="1061.4" y="99.1" width="61" height="24.65" shape-rendering="crispEdges"/><rect fill="#1e1e1e" x="1122.4" y="99.1" width="73.2" height="24.65" shape-rendering="crispEdges"/><rect fill="#1e1e1e" x="1195.6" y="99.1" width="12.2" height="24.65" shape-rendering="crispEdges"/><rect fill="#1e1e1e" x="1207.8" y="99.1" width="12.2" height="24.65" shape-rendering="crispEdges"/><rect fill="#1e1e1e" x="0" y="123.5" width="12.2" height="24.65" shape-rendering="crispEdges"/><rect fill="#1e1e1e" x="12.2" y="123.5" width="12.2" height="24.65" shape-rendering="crispEdges"/><rect fill="#1e1e1e" x="24.4" y="123.5" width="24.4" height="24.65" shape-rendering="crispEdges"/><rect fill="#1e1e1e" x="48.8" y="123.5" width="585.6" height="24.65" shape-rendering="crispEdges"/><rect fill="#1e1e1e" x="634.4" y="123.5" width="24.4" height="24.65" shape-rendering="crispEdges"/><rect fill="#1e1e1e" x="658.8" y="123.5" width="12.2" height="24.65" shape-rendering="crispEdges"/><rect fill="#1e1e1e" x="671" y="123.5" width="12.2" height="24.65" shape-rendering="crispEdges"/><rect fill="#1e1e1e" x="683.2" y="123.5" width="12.2" height="24.65" shape-rendering="crispEdges"/><rect fill="#1e1e1e" x="695.4" y="123.5" width="24.4" height="24.65" shape-rendering="crispEdges"/><rect fill="#1e1e1e" x="719.8" y="123.5" width="97.6" height="24.65" shape-rendering="crispEdges"/><rect fill="#1e1e1e" x="817.4" y="123.5" width="36.6" height="24.65" shape-rendering="crispEdges"/><rect fill="#1e1e1e" x="854" y="123.5" width="61" height="24.65" shape-rendering="crispEdges"/><rect fill="#1e1e1e" x="915" y="123.5" width="280.6" height="24.65" shape-rendering="crispEdges"/><rect fill="#1e1e1e" x="1195.6" y="123.5" width="12.2" height="24.65" shape-rendering="crispEdges"/><rect fill="#1e1e1e" x="1207.8" y="123.5" width="12.2" height="24.65" shape-rendering="crispEdges"/><rect fill="#1e1e1e" x="0" y="147.9" width="12.2" height="24.65" shape-rendering="crispEdges"/><rect fill="#1e1e1e" x="12.2" y="147.9" width="12.2" height="24.65" shape-rendering="crispEdges"/><rect fill="#1e1e1e" x="24.4" y="147.9" width="634.4" height="24.65" shape-rendering="crispEdges"/><rect fill="#1e1e1e" x="658.8" y="147.9" width="12.2" height="24.65" shape-rendering="crispEdges"/><rect fill="#1e1e1e" x="671" y="147.9" width="12.2" height="24.65" shape-rendering="crispEdges"/><rect fill="#1e1e1e" x="683.2" y="147.9" width="12.2" height="24.65" shape-rendering="crispEdges"/><rect fill="#1e1e1e" x="695.4" y="147.9" width="24.4" height="24.65" shape-rendering="crispEdges"/><rect fill="#1e1e1e" x="719.8" y="147.9" width="97.6" height="24.65" shape-rendering="crispEdges"/><rect fill="#1e1e1e" x="817.4" y="147.9" width="36.6" height="24.65" shape-rendering="crispEdges"/><rect fill="#1e1e1e" x="854" y="147.9" width="61" height="24.65" shape-rendering="crispEdges"/><rect fill="#1e1e1e" x="915" y="147.9" width="280.6" height="24.65" shape-rendering="crispEdges"/><rect fill="#1e1e1e" x="1195.6" y="147.9" width="12.2" height="24.65" shape-rendering="crispEdges"/><rect fill="#1e1e1e" x="1207.8" y="147.9" width="12.2" height="24.65" shape-rendering="crispEdges"/><rect fill="#1e1e1e" x="0" y="172.3" width="12.2" height="24.65" shape-rendering="crispEdges"/><rect fill="#1e1e1e" x="12.2" y="172.3" width="658.8" height="24.65" shape-rendering="crispEdges"/><rect fill="#1e1e1e" x="671" y="172.3" width="12.2" height="24.65" shape-rendering="crispEdges"/><rect fill="#1e1e1e" x="683.2" y="172.3" width="12.2" height="24.65" shape-rendering="crispEdges"/><rect fill="#1e1e1e" x="695.4" y="172.3" width="24.4" height="24.65" shape-rendering="crispEdges"/><rect fill="#1e1e1e" x="719.8" y="172.3" width="97.6" height="24.65" shape-rendering="crispEdges"/><rect fill="#1e1e1e" x="817.4" y="172.3" width="36.6" height="24.65" shape-rendering="crispEdges"/><rect fill="#1e1e1e" x="854" y="172.3" width="61" height="24.65" shape-rendering="crispEdges"/><rect fill="#1e1e1e" x="915" y="172.3" width="280.6" height="24.65" shape-rendering="crispEdges"/><rect fill="#1e1e1e" x="1195.6" y="172.3" width="12.2" height="24.65" shape-rendering="crispEdges"/><rect fill="#1e1e1e" x="1207.8" y="172.3" width="12.2" height="24.65" shape-rendering="crispEdges"/><rect fill="#1e1e1e" x="0" y="196.7" width="683.2" height="24.65" shape-rendering="crispEdges"/><rect fill="#1e1e1e" x="683.2" y="196.7" width="12.2" height="24.65" shape-rendering="crispEdges"/><rect fill="#1e1e1e" x="695.4" y="196.7" width="24.4" height="24.65" shape-rendering="crispEdges"/><rect fill="#1e1e1e" x="719.8" y="196.7" width="97.6" height="24.65" shape-rendering="crispEdges"/><rect fill="#1e1e1e" x="817.4" y="196.7" width="36.6" height="24.65" shape-rendering="crispEdges"/><rect fill="#1e1e1e" x="854" y="196.7" width="61" height="24.65" shape-rendering="crispEdges"/><rect fill="#1e1e1e" x="915" y="196.7" width="280.6" height="24.65" shape-rendering="crispEdges"/><rect fill="#1e1e1e" x="1195.6" y="196.7" width="12.2" height="24.65" shape-rendering="crispEdges"/><rect fill="#1e1e1e" x="1207.8" y="196.7" width="12.2" height="24.65" shape-rendering="crispEdges"/><rect fill="#1e1e1e" x="0" y="221.1" width="683.2" height="24.65" shape-rendering="crispEdges"/><rect fill="#1e1e1e" x="683.2" y="221.1" width="12.2" height="24.65" shape-rendering="crispEdges"/><rect fill="#1e1e1e" x="695.4" y="221.1" width="24.4" height="24.65" shape-rendering="crispEdges"/><rect fill="#1e1e1e" x="719.8" y="221.1" width="97.6" height="24.65" shape-rendering="crispEdges"/><rect fill="#1e1e1e" x="817.4" y="221.1" width="36.6" height="24.65" shape-rendering="crispEdges"/><rect fill="#1e1e1e" x="854" y="221.1" width="61" height="24.65" shape-rendering="crispEdges"/><rect fill="#1e1e1e" x="915" y="221.1" width="280.6" height="24.65" shape-rendering="crispEdges"/><rect fill="#1e1e1e" x="1195.6" y="221.1" width="12.2" height="24.65" shape-rendering="crispEdges"/><rect fill="#1e1e1e" x="1207.8" y="221.1" width="12.2" height="24.65" shape-rendering="crispEdges"/><rect fill="#1e1e1e" x="0" y="245.5" width="683.2" height="24.65" shape-rendering="crispEdges"/><rect fill="#1e1e1e" x="683.2" y="245.5" width="12.2" height="24.65" shape-rendering="crispEdges"/><rect fill="#1e1e1e" x="695.4" y="245.5" width="24.4" height="24.65" shape-rendering="crispEdges"/><rect fill="#1e1e1e" x="719.8" y="245.5" width="97.6" height="24.65" shape-rendering="crispEdges"/><rect fill="#1e1e1e" x="817.4" y="245.5" width="36.6" height="24.65" shape-rendering="crispEdges"/><rect fill="#1e1e1e" x="854" y="245.5" width="61" height="24.65" shape-rendering="crispEdges"/><rect fill="#1e1e1e" x="915" y="245.5" width="280.6" height="24.65" shape-rendering="crispEdges"/><rect fill="#1e1e1e" x="1195.6" y="245.5" width="12.2" height="24.65" shape-rendering="crispEdges"/><rect fill="#1e1e1e" x="1207.8" y="245.5" width="12.2" height="24.65" shape-rendering="crispEdges"/><rect fill="#1e1e1e" x="0" y="269.9" width="683.2" height="24.65" shape-rendering="crispEdges"/><rect fill="#1e1e1e" x="683.2" y="269.9" width="12.2" height="24.65" shape-rendering="crispEdges"/><rect fill="#1e1e1e" x="695.4" y="269.9" width="500.2" height="24.65" shape-rendering="crispEdges"/><rect fill="#1e1e1e" x="1195.6" y="269.9" width="12.2" height="24.65" shape-rendering="crispEdges"/><rect fill="#1e1e1e" x="1207.8" y="269.9" width="12.2" height="24.65" shape-rendering="crispEdges"/><rect fill="#1e1e1e" x="0" y="294.3" width="683.2" height="24.65" shape-rendering="crispEdges"/><rect fill="#1e1e1e" x="683.2" y="294.3" width="524.6" height="24.65" shape-rendering="crispEdges"/><rect fill="#1e1e1e" x="1207.8" y="294.3" width="12.2" height="24.65" shape-rendering="crispEdges"/><rect fill="#1e1e1e" x="0" y="318.7" width="1220" height="24.65" shape-rendering="crispEdges"/><rect fill="#242f38" x="0" y="343.1" width="244" height="24.65" shape-rendering="crispEdges"/><rect fill="#242f38" x="244" y="343.1" width="134.2" height="24.65" shape-rendering="crispEdges"/><rect fill="#242f38" x="378.2" y="343.1" width="146.4" height="24.65" shape-rendering="crispEdges"/><rect fill="#242f38" x="524.6" y="343.1" width="134.2" height="24.65" shape-rendering="crispEdges"/><rect fill="#242f38" x="658.8" y="343.1" width="134.2" height="24.65" shape-rendering="crispEdges"/><rect fill="#242f38" x="793" y="343.1" width="292.8" height="24.65" shape-rendering="crispEdges"/><rect fill="#222a31" x="1085.8" y="343.1" width="134.2" height="24.65" shape-rendering="crispEdges"/><rect fill="#171717" x="0" y="367.5" width="12.2" height="24.65" shape-rendering="crispEdges"/><rect fill="#171717" x="12.2" y="367.5" width="134.2" height="24.65" shape-rendering="crispEdges"/><rect fill="#171717" x="146.4" y="367.5" width="97.6" height="24.65" shape-rendering="crispEdges"/><rect fill="#171717" x="244" y="367.5" width="12.2" height="24.65" shape-rendering="crispEdges"/><rect fill="#171717" x="256.2" y="367.5" width="48.8" height="24.65" shape-rendering="crispEdges"/><rect fill="#171717" x="305" y="367.5" width="73.2" height="24.65" shape-rendering="crispEdges"/><rect fill="#171717" x="378.2" y="367.5" width="146.4" height="24.65" shape-rendering="crispEdges"/><rect fill="#171717" x="524.6" y="367.5" width="134.2" height="24.65" shape-rendering="crispEdges"/><rect fill="#171717" x="658.8" y="367.5" width="134.2" height="24.65" shape-rendering="crispEdges"/><rect fill="#171717" x="793" y="367.5" width="12.2" height="24.65" shape-rendering="crispEdges"/><rect fill="#171717" x="805.2" y="367.5" width="36.6" height="24.65" shape-rendering="crispEdges"/><rect fill="#171717" x="841.8" y="367.5" width="244" height="24.65" shape-rendering="crispEdges"/><rect fill="#181818" x="1085.8" y="367.5" width="134.2" height="24.65" shape-rendering="crispEdges"/><rect fill="#1e1e1e" x="0" y="391.9" width="12.2" height="24.65" shape-rendering="crispEdges"/><rect fill="#1e1e1e" x="12.2" y="391.9" width="73.2" height="24.65" shape-rendering="crispEdges"/><rect fill="#1e1e1e" x="85.4" y="391.9" width="158.6" height="24.65" shape-rendering="crispEdges"/><rect fill="#1e1e1e" x="244" y="391.9" width="12.2" height="24.65" shape-rendering="crispEdges"/><rect fill="#1e1e1e" x="256.2" y="391.9" width="48.8" height="24.65" shape-rendering="crispEdges"/><rect fill="#1e1e1e" x="305" y="391.9" width="73.2" height="24.65" shape-rendering="crispEdges"/><rect fill="#1e1e1e" x="378.2" y="391.9" width="146.4" height="24.65" shape-rendering="crispEdges"/><rect fill="#1e1e1e" x="524.6" y="391.9" width="134.2" height="24.65" shape-rendering="crispEdges"/><rect fill="#1e1e1e" x="658.8" y="391.9" width="134.2" height="24.65" shape-rendering="crispEdges"/><rect fill="#1e1e1e" x="793" y="391.9" width="12.2" height="24.65" shape-rendering="crispEdges"/><rect fill="#1e1e1e" x="805.2" y="391.9" width="36.6" height="24.65" shape-rendering="crispEdges"/><rect fill="#1e1e1e" x="841.8" y="391.9" width="244" height="24.65" shape-rendering="crispEdges"/><rect fill="#1e1e1e" x="1085.8" y="391.9" width="134.2" height="24.65" shape-rendering="crispEdges"/><rect fill="#171717" x="0" y="416.3" width="12.2" height="24.65" shape-rendering="crispEdges"/><rect fill="#171717" x="12.2" y="416.3" width="183" height="24.65" shape-rendering="crispEdges"/><rect fill="#171717" x="195.2" y="416.3" width="48.8" height="24.65" shape-rendering="crispEdges"/><rect fill="#171717" x="244" y="416.3" width="12.2" height="24.65" shape-rendering="crispEdges"/><rect fill="#171717" x="256.2" y="416.3" width="48.8" height="24.65" shape-rendering="crispEdges"/><rect fill="#171717" x="305" y="416.3" width="73.2" height="24.65" shape-rendering="crispEdges"/><rect fill="#171717" x="378.2" y="416.3" width="146.4" height="24.65" shape-rendering="crispEdges"/><rect fill="#171717" x="524.6" y="416.3" width="134.2" height="24.65" shape-rendering="crispEdges"/><rect fill="#171717" x="658.8" y="416.3" width="134.2" height="24.65" shape-rendering="crispEdges"/><rect fill="#171717" x="793" y="416.3" width="12.2" height="24.65" shape-rendering="crispEdges"/><rect fill="#171717" x="805.2" y="416.3" width="36.6" height="24.65" shape-rendering="crispEdges"/><rect fill="#171717" x="841.8" y="416.3" width="244" height="24.65" shape-rendering="crispEdges"/><rect fill="#181818" x="1085.8" y="416.3" width="134.2" height="24.65" shape-rendering="crispEdges"/><rect fill="#1e1e1e" x="0" y="440.7" width="12.2" height="24.65" shape-rendering="crispEdges"/><rect fill="#1e1e1e" x="12.2" y="440.7" width="158.6" height="24.65" shape-rendering="crispEdges"/><rect fill="#1e1e1e" x="170.8" y="440.7" width="73.2" height="24.65" shape-rendering="crispEdges"/><rect fill="#1e1e1e" x="244" y="440.7" width="12.2" height="24.65" shape-rendering="crispEdges"/><rect fill="#1e1e1e" x="256.2" y="440.7" width="48.8" height="24.65" shape-rendering="crispEdges"/><rect fill="#1e1e1e" x="305" y="440.7" width="73.2" height="24.65" shape-rendering="crispEdges"/><rect fill="#1e1e1e" x="378.2" y="440.7" width="146.4" height="24.65" shape-rendering="crispEdges"/><rect fill="#1e1e1e" x="524.6" y="440.7" width="134.2" height="24.65" shape-rendering="crispEdges"/><rect fill="#1e1e1e" x="658.8" y="440.7" width="134.2" height="24.65" shape-rendering="crispEdges"/><rect fill="#1e1e1e" x="793" y="440.7" width="12.2" height="24.65" shape-rendering="crispEdges"/><rect fill="#1e1e1e" x="805.2" y="440.7" width="36.6" height="24.65" shape-rendering="crispEdges"/><rect fill="#1e1e1e" x="841.8" y="440.7" width="244" height="24.65" shape-rendering="crispEdges"/><rect fill="#1e1e1e" x="1085.8" y="440.7" width="134.2" height="24.65" shape-rendering="crispEdges"/><rect fill="#171717" x="0" y="465.1" width="12.2" height="24.65" shape-rendering="crispEdges"/><rect fill="#171717" x="12.2" y="465.1" width="134.2" height="24.65" shape-rendering="crispEdges"/><rect fill="#171717" x="146.4" y="465.1" width="97.6" height="24.65" shape-rendering="crispEdges"/><rect fill="#171717" x="244" y="465.1" width="12.2" height="24.65" shape-rendering="crispEdges"/><rect fill="#171717" x="256.2" y="465.1" width="48.8" height="24.65" shape-rendering="crispEdges"/><rect fill="#171717" x="305" y="465.1" width="73.2" height="24.65" shape-rendering="crispEdges"/><rect fill="#171717" x="378.2" y="465.1" width="146.4" height="24.65" shape-rendering="crispEdges"/><rect fill="#171717" x="524.6" y="465.1" width="134.2" height="24.65" shape-rendering="crispEdges"/><rect fill="#171717" x="658.8" y="465.1" width="134.2" height="24.65" shape-rendering="crispEdges"/><rect fill="#171717" x="793" y="465.1" width="12.2" height="24.65" shape-rendering="crispEdges"/><rect fill="#171717" x="805.2" y="465.1" width="36.6" height="24.65" shape-rendering="crispEdges"/><rect fill="#171717" x="841.8" y="465.1" width="244" height="24.65" shape-rendering="crispEdges"/><rect fill="#181818" x="1085.8" y="465.1" width="134.2" height="24.65" shape-rendering="crispEdges"/><rect fill="#1e1e1e" x="0" y="489.5" width="1220" height="24.65" shape-rendering="crispEdges"/><rect fill="#1e1e1e" x="0" y="513.9" width="1220" height="24.65" shape-rendering="crispEdges"/><rect fill="#1e1e1e" x="0" y="538.3" width="1220" height="24.65" shape-rendering="crispEdges"/><rect fill="#1e1e1e" x="0" y="562.7" width="1220" height="24.65" shape-rendering="crispEdges"/><rect fill="#1e1e1e" x="0" y="587.1" width="1220" height="24.65" shape-rendering="crispEdges"/><rect fill="#1e1e1e" x="0" y="611.5" width="1220" height="24.65" shape-rendering="crispEdges"/><rect fill="#1e1e1e" x="0" y="635.9" width="1220" height="24.65" shape-rendering="crispEdges"/><rect fill="#1e1e1e" x="0" y="660.3" width="1220" height="24.65" shape-rendering="crispEdges"/><rect fill="#1e1e1e" x="0" y="684.7" width="1220" height="24.65" shape-rendering="crispEdges"/><rect fill="#242f38" x="0" y="709.1" width="61" height="24.65" shape-rendering="crispEdges"/><rect fill="#242f38" x="61" y="709.1" width="61" height="24.65" shape-rendering="crispEdges"/><rect fill="#242f38" x="122" y="709.1" width="36.6" height="24.65" shape-rendering="crispEdges"/><rect fill="#242f38" x="158.6" y="709.1" width="97.6" height="24.65" shape-rendering="crispEdges"/><rect fill="#242f38" x="256.2" y="709.1" width="36.6" height="24.65" shape-rendering="crispEdges"/><rect fill="#242f38" x="292.8" y="709.1" width="61" height="24.65" shape-rendering="crispEdges"/><rect fill="#242f38" x="353.8" y="709.1" width="36.6" height="24.65" shape-rendering="crispEdges"/><rect fill="#242f38" x="390.4" y="709.1" width="61" height="24.65" shape-rendering="crispEdges"/><rect fill="#242f38" x="451.4" y="709.1" width="622.2" height="24.65" shape-rendering="crispEdges"/><rect fill="#242f38" x="1073.6" y="709.1" width="12.2" height="24.65" shape-rendering="crispEdges"/><rect fill="#242f38" x="1085.8" y="709.1" width="24.4" height="24.65" shape-rendering="crispEdges"/><rect fill="#242f38" x="1110.2" y="709.1" width="97.6" height="24.65" shape-rendering="crispEdges"/><rect fill="#242f38" x="1207.8" y="709.1" width="12.2" height="24.65" shape-rendering="crispEdges"/>
    <g class="terminal-matrix">
    <text class="terminal-r2" x="12.2" y="20" textLength="12.2" clip-path="url(#terminal-line-0)">⭘</text><text class="terminal-r2" x="463.6" y="20" textLength="146.4" clip-path="url(#terminal-line-0)">Example&#160;Home</text><text class="terminal-r3" x="610" y="20" textLength="36.6" clip-path="url(#terminal-line-0)">&#160;—&#160;</text><text class="terminal-r3" x="646.6" y="20" textLength="73.2" clip-path="url(#terminal-line-0)">Energy</text><text class="terminal-r4" x="1110.2" y="20" textLength="97.6" clip-path="url(#terminal-line-0)">01:04:34</text><text class="terminal-r1" x="1220" y="20" textLength="12.2" clip-path="url(#terminal-line-0)">
</text><text class="terminal-r5" x="12.2" y="44.4" textLength="158.6" clip-path="url(#terminal-line-1)">Whole&#160;house&#160;&#160;</text><text class="terminal-r6" x="170.8" y="44.4" textLength="170.8" clip-path="url(#terminal-line-1)">5.48&#160;kWh&#160;today</text><text class="terminal-r7" x="341.6" y="44.4" textLength="707.6" clip-path="url(#terminal-line-1)">&#160;&#160;·&#160;&#160;0.86&#160;yesterday&#160;&#160;·&#160;&#160;10.7&#160;in&#160;7&#160;days&#160;&#160;·&#160;&#160;30.5&#160;in&#160;30&#160;days</text><text class="terminal-r1" x="1220" y="44.4" textLength="12.2" clip-path="url(#terminal-line-1)">
</text><text class="terminal-r8" x="12.2" y="68.8" textLength="24.4" clip-path="url(#terminal-line-2)">╭─</text><text class="terminal-r9" x="36.6" y="68.8" textLength="402.6" clip-path="url(#terminal-line-2)">&#160;Whole&#160;house&#160;today&#160;by&#160;hour&#160;(kWh)&#160;</text><text class="terminal-r8" x="439.2" y="68.8" textLength="231.8" clip-path="url(#terminal-line-2)">──────────────────╮</text><text class="terminal-r8" x="683.2" y="68.8" textLength="24.4" clip-path="url(#terminal-line-2)">╭─</text><text class="terminal-r9" x="707.6" y="68.8" textLength="317.2" clip-path="url(#terminal-line-2)">&#160;Whole&#160;house,&#160;last&#160;7&#160;days&#160;</text><text class="terminal-r8" x="1024.8" y="68.8" textLength="183" clip-path="url(#terminal-line-2)">──────────────╮</text><text class="terminal-r1" x="1220" y="68.8" textLength="12.2" clip-path="url(#terminal-line-2)">
</text><text class="terminal-r8" x="12.2" y="93.2" textLength="12.2" clip-path="url(#terminal-line-3)">│</text><text class="terminal-r8" x="658.8" y="93.2" textLength="12.2" clip-path="url(#terminal-line-3)">│</text><text class="terminal-r8" x="683.2" y="93.2" textLength="12.2" clip-path="url(#terminal-line-3)">│</text><text class="terminal-r8" x="1195.6" y="93.2" textLength="12.2" clip-path="url(#terminal-line-3)">│</text><text class="terminal-r1" x="1220" y="93.2" textLength="12.2" clip-path="url(#terminal-line-3)">
</text><text class="terminal-r8" x="12.2" y="117.6" textLength="12.2" clip-path="url(#terminal-line-4)">│</text><text class="terminal-r6" x="48.8" y="117.6" textLength="585.6" clip-path="url(#terminal-line-4)">▁▁▁▁▁▁▁▁▁▁▁▁▁▁▁▁▁▁▁▁▁▁▁▁▁▁▁▁▁▁▁▁▇▇██▁▁&#160;&#160;&#160;&#160;&#160;&#160;&#160;&#160;&#160;&#160;</text><text class="terminal-r8" x="658.8" y="117.6" textLength="12.2" clip-path="url(#terminal-line-4)">│</text><text class="terminal-r8" x="683.2" y="117.6" textLength="12.2" clip-path="url(#terminal-line-4)">│</text><text class="terminal-r10" x="719.8" y="117.6" textLength="97.6" clip-path="url(#terminal-line-4)">Mon&#160;&#160;5&#160;&#160;</text><text class="terminal-r6" x="817.4" y="117.6" textLength="244" clip-path="url(#terminal-line-4)">████████████████████</text><text class="terminal-r2" x="1061.4" y="117.6" textLength="61" clip-path="url(#terminal-line-4)">&#160;5.48</text><text class="terminal-r8" x="1195.6" y="117.6" textLength="12.2" clip-path="url(#terminal-line-4)">│</text><text class="terminal-r1" x="1220" y="117.6" textLength="12.2" clip-path="url(#terminal-line-4)">
</text><text class="terminal-r8" x="12.2" y="142" textLength="12.2" clip-path="url(#terminal-line-5)">│</text><text class="terminal-r10" x="48.8" y="142" textLength="585.6" clip-path="url(#terminal-line-5)">00&#160;&#160;&#160;&#160;03&#160;&#160;&#160;&#160;06&#160;&#160;&#160;&#160;09&#160;&#160;&#160;&#160;12&#160;&#160;&#160;&#160;15&#160;&#160;&#160;&#160;18&#160;&#160;&#160;&#160;21&#160;&#160;&#160;&#160;</text><text class="terminal-r8" x="658.8" y="142" textLength="12.2" clip-path="url(#terminal-line-5)">│</text><text class="terminal-r8" x="683.2" y="142" textLength="12.2" clip-path="url(#terminal-line-5)">│</text><text class="terminal-r10" x="719.8" y="142" textLength="97.6" clip-path="url(#terminal-line-5)">Sun&#160;&#160;4&#160;&#160;</text><text class="terminal-r6" x="817.4" y="142" textLength="36.6" clip-path="url(#terminal-line-5)">███</text><text class="terminal-r2" x="854" y="142" textLength="61" clip-path="url(#terminal-line-5)">&#160;0.86</text><text class="terminal-r8" x="1195.6" y="142" textLength="12.2" clip-path="url(#terminal-line-5)">│</text><text class="terminal-r1" x="1220" y="142" textLength="12.2" clip-path="url(#terminal-line-5)">
</text><text class="terminal-r8" x="12.2" y="166.4" textLength="12.2" clip-path="url(#terminal-line-6)">│</text><text class="terminal-r8" x="658.8" y="166.4" textLength="12.2" clip-path="url(#terminal-line-6)">│</text><text class="terminal-r8" x="683.2" y="166.4" textLength="12.2" clip-path="url(#terminal-line-6)">│</text><text class="terminal-r10" x="719.8" y="166.4" textLength="97.6" clip-path="url(#terminal-line-6)">Sat&#160;&#160;3&#160;&#160;</text><text class="terminal-r6" x="817.4" y="166.4" textLength="36.6" clip-path="url(#terminal-line-6)">███</text><text class="terminal-r2" x="854" y="166.4" textLength="61" clip-path="url(#terminal-line-6)">&#160;0.86</text><text class="terminal-r8" x="1195.6" y="166.4" textLength="12.2" clip-path="url(#terminal-line-6)">│</text><text class="terminal-r1" x="1220" y="166.4" textLength="12.2" clip-path="url(#terminal-line-6)">
</text><text class="terminal-r8" x="12.2" y="190.8" textLength="658.8" clip-path="url(#terminal-line-7)">╰────────────────────────────────────────────────────╯</text><text class="terminal-r8" x="683.2" y="190.8" textLength="12.2" clip-path="url(#terminal-line-7)">│</text><text class="terminal-r10" x="719.8" y="190.8" textLength="97.6" clip-path="url(#terminal-line-7)">Fri&#160;&#160;2&#160;&#160;</text><text class="terminal-r6" x="817.4" y="190.8" textLength="36.6" clip-path="url(#terminal-line-7)">███</text><text class="terminal-r2" x="854" y="190.8" textLength="61" clip-path="url(#terminal-line-7)">&#160;0.86</text><text class="terminal-r8" x="1195.6" y="190.8" textLength="12.2" clip-path="url(#terminal-line-7)">│</text><text class="terminal-r1" x="1220" y="190.8" textLength="12.2" clip-path="url(#terminal-line-7)">
</text><text class="terminal-r8" x="683.2" y="215.2" textLength="12.2" clip-path="url(#terminal-line-8)">│</text><text class="terminal-r10" x="719.8" y="215.2" textLength="97.6" clip-path="url(#terminal-line-8)">Thu&#160;&#160;1&#160;&#160;</text><text class="terminal-r6" x="817.4" y="215.2" textLength="36.6" clip-path="url(#terminal-line-8)">███</text><text class="terminal-r2" x="854" y="215.2" textLength="61" clip-path="url(#terminal-line-8)">&#160;0.86</text><text class="terminal-r8" x="1195.6" y="215.2" textLength="12.2" clip-path="url(#terminal-line-8)">│</text><text class="terminal-r1" x="1220" y="215.2" textLength="12.2" clip-path="url(#terminal-line-8)">
</text><text class="terminal-r8" x="683.2" y="239.6" textLength="12.2" clip-path="url(#terminal-line-9)">│</text><text class="terminal-r10" x="719.8" y="239.6" textLength="97.6" clip-path="url(#terminal-line-9)">Wed&#160;30&#160;&#160;</text><text class="terminal-r6" x="817.4" y="239.6" textLength="36.6" clip-path="url(#terminal-line-9)">███</text><text class="terminal-r2" x="854" y="239.6" textLength="61" clip-path="url(#terminal-line-9)">&#160;0.86</text><text class="terminal-r8" x="1195.6" y="239.6" textLength="12.2" clip-path="url(#terminal-line-9)">│</text><text class="terminal-r1" x="1220" y="239.6" textLength="12.2" clip-path="url(#terminal-line-9)">
</text><text class="terminal-r8" x="683.2" y="264" textLength="12.2" clip-path="url(#terminal-line-10)">│</text><text class="terminal-r10" x="719.8" y="264" textLength="97.6" clip-path="url(#terminal-line-10)">Tue&#160;29&#160;&#160;</text><text class="terminal-r6" x="817.4" y="264" textLength="36.6" clip-path="url(#terminal-line-10)">███</text><text class="terminal-r2" x="854" y="264" textLength="61" clip-path="url(#terminal-line-10)">&#160;0.86</text><text class="terminal-r8" x="1195.6" y="264" textLength="12.2" clip-path="url(#terminal-line-10)">│</text><text class="terminal-r1" x="1220" y="264" textLength="12.2" clip-path="url(#terminal-line-10)">
</text><text class="terminal-r8" x="683.2" y="288.4" textLength="12.2" clip-path="url(#terminal-line-11)">│</text><text class="terminal-r8" x="1195.6" y="288.4" textLength="12.2" clip-path="url(#terminal-line-11)">│</text><text class="terminal-r1" x="1220" y="288.4" textLength="12.2" clip-path="url(#terminal-line-11)">
</text><text class="terminal-r8" x="683.2" y="312.8" textLength="524.6" clip-path="url(#terminal-line-12)">╰─────────────────────────────────────────╯</text><text class="terminal-r1" x="1220" y="312.8" textLength="12.2" clip-path="url(#terminal-line-12)">
</text><text class="terminal-r1" x="1220" y="337.2" textLength="12.2" clip-path="url(#terminal-line-13)">
</text><text class="terminal-r11" x="0" y="361.6" textLength="244" clip-path="url(#terminal-line-14)">&#160;Room&#160;&#160;&#160;&#160;&#160;&#160;&#160;&#160;&#160;&#160;&#160;&#160;&#160;&#160;&#160;</text><text class="terminal-r11" x="244" y="361.6" textLength="134.2" clip-path="url(#terminal-line-14)">&#160;Today&#160;&#160;&#160;&#160;&#160;</text><text class="terminal-r11" x="378.2" y="361.6" textLength="146.4" clip-path="url(#terminal-line-14)">&#160;Yesterday&#160;&#160;</text><text class="terminal-r11" x="524.6" y="361.6" textLength="134.2" clip-path="url(#terminal-line-14)">&#160;7&#160;days&#160;&#160;&#160;&#160;</text><text class="terminal-r11" x="658.8" y="361.6" textLength="134.2" clip-path="url(#terminal-line-14)">&#160;30&#160;days&#160;&#160;&#160;</text><text class="terminal-r11" x="793" y="361.6" textLength="292.8" clip-path="url(#terminal-line-14)">&#160;Share&#160;&#160;&#160;&#160;&#160;&#160;&#160;&#160;&#160;&#160;&#160;&#160;&#160;&#160;&#160;&#160;&#160;&#160;</text><text class="terminal-r1" x="1220" y="361.6" textLength="12.2" clip-path="url(#terminal-line-14)">
</text><text class="terminal-r11" x="12.2" y="386" textLength="134.2" clip-path="url(#terminal-line-15)">Family&#160;Room</text><text class="terminal-r6" x="256.2" y="386" textLength="48.8" clip-path="url(#terminal-line-15)">1.10</text><text class="terminal-r2" x="378.2" y="386" textLength="146.4" clip-path="url(#terminal-line-15)">&#160;0.17&#160;&#160;&#160;&#160;&#160;&#160;&#160;</text><text class="terminal-r2" x="524.6" y="386" textLength="134.2" clip-path="url(#terminal-line-15)">&#160;2.1&#160;&#160;&#160;&#160;&#160;&#160;&#160;</text><text class="terminal-r2" x="658.8" y="386" textLength="134.2" clip-path="url(#terminal-line-15)">&#160;6.1&#160;&#160;&#160;&#160;&#160;&#160;&#160;</text><text class="terminal-r6" x="805.2" y="386" textLength="36.6" clip-path="url(#terminal-line-15)">███</text><text class="terminal-r2" x="841.8" y="386" textLength="244" clip-path="url(#terminal-line-15)">&#160;20%&#160;&#160;&#160;&#160;&#160;&#160;&#160;&#160;&#160;&#160;&#160;&#160;&#160;&#160;&#160;&#160;</text><text class="terminal-r1" x="1220" y="386" textLength="12.2" clip-path="url(#terminal-line-15)">
</text><text class="terminal-r11" x="12.2" y="410.4" textLength="73.2" clip-path="url(#terminal-line-16)">Office</text><text class="terminal-r6" x="256.2" y="410.4" textLength="48.8" clip-path="url(#terminal-line-16)">1.10</text><text class="terminal-r2" x="378.2" y="410.4" textLength="146.4" clip-path="url(#terminal-line-16)">&#160;0.17&#160;&#160;&#160;&#160;&#160;&#160;&#160;</text><text class="terminal-r2" x="524.6" y="410.4" textLength="134.2" clip-path="url(#terminal-line-16)">&#160;2.1&#160;&#160;&#160;&#160;&#160;&#160;&#160;</text><text class="terminal-r2" x="658.8" y="410.4" textLength="134.2" clip-path="url(#terminal-line-16)">&#160;6.1&#160;&#160;&#160;&#160;&#160;&#160;&#160;</text><text class="terminal-r6" x="805.2" y="410.4" textLength="36.6" clip-path="url(#terminal-line-16)">███</text><text class="terminal-r2" x="841.8" y="410.4" textLength="244" clip-path="url(#terminal-line-16)">&#160;20%&#160;&#160;&#160;&#160;&#160;&#160;&#160;&#160;&#160;&#160;&#160;&#160;&#160;&#160;&#160;&#160;</text><text class="terminal-r1" x="1220" y="410.4" textLength="12.2" clip-path="url(#terminal-line-16)">
</text><text class="terminal-r11" x="12.2" y="434.8" textLength="183" clip-path="url(#terminal-line-17)">Primary&#160;Bedroom</text><text class="terminal-r6" x="256.2" y="434.8" textLength="48.8" clip-path="url(#terminal-line-17)">1.10</text><text class="terminal-r2" x="378.2" y="434.8" textLength="146.4" clip-path="url(#terminal-line-17)">&#160;0.17&#160;&#160;&#160;&#160;&#160;&#160;&#160;</text><text class="terminal-r2" x="524.6" y="434.8" textLength="134.2" clip-path="url(#terminal-line-17)">&#160;2.1&#160;&#160;&#160;&#160;&#160;&#160;&#160;</text><text class="terminal-r2" x="658.8" y="434.8" textLength="134.2" clip-path="url(#terminal-line-17)">&#160;6.1&#160;&#160;&#160;&#160;&#160;&#160;&#160;</text><text class="terminal-r6" x="805.2" y="434.8" textLength="36.6" clip-path="url(#terminal-line-17)">███</text><text class="terminal-r2" x="841.8" y="434.8" textLength="244" clip-path="url(#terminal-line-17)">&#160;20%&#160;&#160;&#160;&#160;&#160;&#160;&#160;&#160;&#160;&#160;&#160;&#160;&#160;&#160;&#160;&#160;</text><text class="terminal-r1" x="1220" y="434.8" textLength="12.2" clip-path="url(#terminal-line-17)">
</text><text class="terminal-r11" x="12.2" y="459.2" textLength="158.6" clip-path="url(#terminal-line-18)">Guest&#160;Bedroom</text><text class="terminal-r6" x="256.2" y="459.2" textLength="48.8" clip-path="url(#terminal-line-18)">1.10</text><text class="terminal-r2" x="378.2" y="459.2" textLength="146.4" clip-path="url(#terminal-line-18)">&#160;0.17&#160;&#160;&#160;&#160;&#160;&#160;&#160;</text><text class="terminal-r2" x="524.6" y="459.2" textLength="134.2" clip-path="url(#terminal-line-18)">&#160;2.1&#160;&#160;&#160;&#160;&#160;&#160;&#160;</text><text class="terminal-r2" x="658.8" y="459.2" textLength="134.2" clip-path="url(#terminal-line-18)">&#160;6.1&#160;&#160;&#160;&#160;&#160;&#160;&#160;</text><text class="terminal-r6" x="805.2" y="459.2" textLength="36.6" clip-path="url(#terminal-line-18)">███</text><text class="terminal-r2" x="841.8" y="459.2" textLength="244" clip-path="url(#terminal-line-18)">&#160;20%&#160;&#160;&#160;&#160;&#160;&#160;&#160;&#160;&#160;&#160;&#160;&#160;&#160;&#160;&#160;&#160;</text><text class="terminal-r1" x="1220" y="459.2" textLength="12.2" clip-path="url(#terminal-line-18)">
</text><text class="terminal-r11" x="12.2" y="483.6" textLength="134.2" clip-path="url(#terminal-line-19)">Dining&#160;Room</text><text class="terminal-r6" x="256.2" y="483.6" textLength="48.8" clip-path="url(#terminal-line-19)">1.10</text><text class="terminal-r2" x="378.2" y="483.6" textLength="146.4" clip-path="url(#terminal-line-19)">&#160;0.17&#160;&#160;&#160;&#160;&#160;&#160;&#160;</text><text class="terminal-r2" x="524.6" y="483.6" textLength="134.2" clip-path="url(#terminal-line-19)">&#160;2.1&#160;&#160;&#160;&#160;&#160;&#160;&#160;</text><text class="terminal-r2" x="658.8" y="483.6" textLength="134.2" clip-path="url(#terminal-line-19)">&#160;6.1&#160;&#160;&#160;&#160;&#160;&#160;&#160;</text><text class="terminal-r6" x="805.2" y="483.6" textLength="36.6" clip-path="url(#terminal-line-19)">███</text><text class="terminal-r2" x="841.8" y="483.6" textLength="244" clip-path="url(#terminal-line-19)">&#160;20%&#160;&#160;&#160;&#160;&#160;&#160;&#160;&#160;&#160;&#160;&#160;&#160;&#160;&#160;&#160;&#160;</text><text class="terminal-r1" x="1220" y="483.6" textLength="12.2" clip-path="url(#terminal-line-19)">
</text><text class="terminal-r1" x="1220" y="508" textLength="12.2" clip-path="url(#terminal-line-20)">
</text><text class="terminal-r1" x="1220" y="532.4" textLength="12.2" clip-path="url(#terminal-line-21)">
</text><text class="terminal-r1" x="1220" y="556.8" textLength="12.2" clip-path="url(#terminal-line-22)">
</text><text class="terminal-r1" x="1220" y="581.2" textLength="12.2" clip-path="url(#terminal-line-23)">
</text><text class="terminal-r1" x="1220" y="605.6" textLength="12.2" clip-path="url(#terminal-line-24)">
</text><text class="terminal-r1" x="1220" y="630" textLength="12.2" clip-path="url(#terminal-line-25)">
</text><text class="terminal-r1" x="1220" y="654.4" textLength="12.2" clip-path="url(#terminal-line-26)">
</text><text class="terminal-r1" x="1220" y="678.8" textLength="12.2" clip-path="url(#terminal-line-27)">
</text><text class="terminal-r1" x="1220" y="703.2" textLength="12.2" clip-path="url(#terminal-line-28)">
</text><text class="terminal-r12" x="0" y="727.6" textLength="61" clip-path="url(#terminal-line-29)">&#160;esc&#160;</text><text class="terminal-r2" x="61" y="727.6" textLength="61" clip-path="url(#terminal-line-29)">Back&#160;</text><text class="terminal-r12" x="122" y="727.6" textLength="36.6" clip-path="url(#terminal-line-29)">&#160;r&#160;</text><text class="terminal-r2" x="158.6" y="727.6" textLength="97.6" clip-path="url(#terminal-line-29)">Refresh&#160;</text><text class="terminal-r12" x="256.2" y="727.6" textLength="36.6" clip-path="url(#terminal-line-29)">&#160;q&#160;</text><text class="terminal-r2" x="292.8" y="727.6" textLength="61" clip-path="url(#terminal-line-29)">Quit&#160;</text><text class="terminal-r12" x="353.8" y="727.6" textLength="36.6" clip-path="url(#terminal-line-29)">&#160;?&#160;</text><text class="terminal-r2" x="390.4" y="727.6" textLength="61" clip-path="url(#terminal-line-29)">Help&#160;</text><text class="terminal-r13" x="1073.6" y="727.6" textLength="12.2" clip-path="url(#terminal-line-29)">▏</text><text class="terminal-r12" x="1085.8" y="727.6" textLength="24.4" clip-path="url(#terminal-line-29)">^p</text><text class="terminal-r2" x="1110.2" y="727.6" textLength="97.6" clip-path="url(#terminal-line-29)">&#160;palette</text>
    </g>
    </g>
</svg>
