<svg class="rich-terminal" viewBox="0 0 1238 782.0" xmlns="http://www.w3.org/2000/svg">
    <!-- Generated with Rich https://www.textualize.io -->
    <style>

    @font-face {
        font-family: "Fira Code";
        src: local("FiraCode-Regular"),
                url("https://cdnjs.cloudflare.com/ajax/libs/firacode/6.2.0/woff2/FiraCode-Regular.woff2") format("woff2"),
                url("https://cdnjs.cloudflare.com/ajax/libs/firacode/6.2.0/woff/FiraCode-Regular.woff") format("woff");
        font-style: normal;
        font-weight: 400;
    }
    @font-face {
        font-family: "Fira Code";
        src: local("FiraCode-Bold"),
                url("https://cdnjs.cloudflare.com/ajax/libs/firacode/6.2.0/woff2/FiraCode-Bold.woff2") format("woff2"),
                url("https://cdnjs.cloudflare.com/ajax/libs/firacode/6.2.0/woff/FiraCode-Bold.woff") format("woff");
        font-style: bold;
        font-weight: 700;
    }

    .terminal-matrix {
        font-family: Fira Code, monospace;
        font-size: 20px;
        line-height: 24.4px;
        font-variant-east-asian: full-width;
    }

    .terminal-title {
        font-size: 18px;
        font-weight: bold;
        font-family: arial;
    }

    .terminal-r1 { fill: #c5c8c6 }
.terminal-r2 { fill: #e0e0e0 }
.terminal-r3 { fill: #a0a3a6 }
.terminal-r4 { fill: #c5c6c7 }
.terminal-r5 { fill: #7f7f7f }
.terminal-r6 { fill: #313131 }
.terminal-r7 { fill: #0178d4 }
.terminal-r8 { fill: #fd971f }
.terminal-r9 { fill: #9e9e9e }
.terminal-r10 { fill: #e0e0e0;font-weight: bold }
.terminal-r11 { fill: #ffa62b;font-weight: bold }
.terminal-r12 { fill: #495259 }
    </style>

    <defs>
    <clipPath id="terminal-clip-terminal">
      <rect x="0" y="0" width="1219.0" height="731.0" />
    </clipPath>
    <clipPath id="terminal-line-0">
    <rect x="0" y="1.5" width="1220" height="24.65"/>
            </clipPath>
<clipPath id="terminal-line-1">
    <rect x="0" y="25.9" width="1220" height="24.65"/>
            </clipPath>
<clipPath id="terminal-line-2">
    <rect x="0" y="50.3" width="1220" height="24.65"/>
            </clipPath>
<clipPath id="terminal-line-3">
    <rect x="0" y="74.7" width="1220" height="24.65"/>
            </clipPath>
<clipPath id="terminal-line-4">
    <rect x="0" y="99.1" width="1220" height="24.65"/>
            </clipPath>
<clipPath id="terminal-line-5">
    <rect x="0" y="123.5" width="1220" height="24.65"/>
            </clipPath>
<clipPath id="terminal-line-6">
    <rect x="0" y="147.9" width="1220" height="24.65"/>
            </clipPath>
<clipPath id="terminal-line-7">
    <rect x="0" y="172.3" width="1220" height="24.65"/>
            </clipPath>
<clipPath id="terminal-line-8">
    <rect x="0" y="196.7" width="1220" height="24.65"/>
            </clipPath>
<clipPath id="terminal-line-9">
    <rect x="0" y="221.1" width="1220" height="24.65"/>
            </clipPath>
<clipPath id="terminal-line-10">
    <rect x="0" y="245.5" width="1220" height="24.65"/>
            </clipPath>
<clipPath id="terminal-line-11">
    <rect x="0" y="269.9" width="1220" height="24.65"/>
            </clipPath>
<clipPath id="terminal-line-12">
    <rect x="0" y="294.3" width="1220" height="24.65"/>
            </clipPath>
<clipPath id="terminal-line-13">
    <rect x="0" y="318.7" width="1220" height="24.65"/>
            </clipPath>
<clipPath id="terminal-line-14">
    <rect x="0" y="343.1" width="1220" height="24.65"/>
            </clipPath>
<clipPath id="terminal-line-15">
    <rect x="0" y="367.5" width="1220" height="24.65"/>
            </clipPath>
<clipPath id="terminal-line-16">
    <rect x="0" y="391.9" width="1220" height="24.65"/>
            </clipPath>
<clipPath id="terminal-line-17">
    <rect x="0" y="416.3" width="1220" height="24.65"/>
            </clipPath>
<clipPath id="terminal-line-18">
    <rect x="0" y="440.7" width="1220" height="24.65"/>
            </clipPath>
<clipPath id="terminal-line-19">
    <rect x="0" y="465.1" width="1220" height="24.65"/>
            </clipPath>
<clipPath id="terminal-line-20">
    <rect x="0" y="489.5" width="1220" height="24.65"/>
            </clipPath>
<clipPath id="terminal-line-21">
    <rect x="0" y="513.9" width="1220" height="24.65"/>
            </clipPath>
<clipPath id="terminal-line-22">
    <rect x="0" y="538.3" width="1220" height="24.65"/>
            </clipPath>
<clipPath id="terminal-line-23">
    <rect x="0" y="562.7" width="1220" height="24.65"/>
            </clipPath>
<clipPath id="terminal-line-24">
    <rect x="0" y="587.1" width="1220" height="24.65"/>
            </clipPath>
<clipPath id="terminal-line-25">
    <rect x="0" y="611.5" width="1220" height="24.65"/>
            </clipPath>
<clipPath id="terminal-line-26">
    <rect x="0" y="635.9" width="1220" height="24.65"/>
            </clipPath>
<clipPath id="terminal-line-27">
    <rect x="0" y="660.3" width="1220" height="24.65"/>
            </clipPath>
<clipPath id="terminal-line-28">
    <rect x="0" y="684.7" width="1220" height="24.65"/>
            </clipPath>
    </defs>

    <rect fill="#292929" stroke="rgba(255,255,255,0.35)" stroke-width="1" x="1" y="1" width="1236" height="780" rx="8"/><text class="terminal-title" fill="#c5c8c6" text-anchor="middle" x="618" y="27">Quilt&#160;HVAC</text>
            <g transform="translate(26,22)">
            <circle cx="0" cy="0" r="7" fill="#ff5f57"/>
            <circle cx="22" cy="0" r="7" fill="#febc2e"/>
            <circle cx="44" cy="0" r="7" fill="#28c840"/>
            </g>
        
    <g transform="translate(9, 41)" clip-path="url(#terminal-clip-terminal)">
    <rect fill="#242f38" x="0" y="1.5" width="12.2" height="24.65" shape-rendering="crispEdges"/><rect fill="#242f38" x="12.2" y="1.5" width="12.2" height="24.65" shape-rendering="crispEdges"/><rect fill="#242f38" x="24.4" y="1.5" width="61" height="24.65" shape-rendering="crispEdges"/><rect fill="#242f38" x="85.4" y="1.5" width="12.2" height="24.65" shape-rendering="crispEdges"/><rect fill="#242f38" x="97.6" y="1.5" width="256.2" height="24.65" shape-rendering="crispEdges"/><rect fill="#242f38" x="353.8" y="1.5" width="134.2" height="24.65" shape-rendering="crispEdges"/><rect fill="#242f38" x="488" y="1.5" width="36.6" height="24.65" shape-rendering="crispEdges"/><rect fill="#242f38" x="524.6" y="1.5" width="317.2" height="24.65" shape-rendering="crispEdges"/><rect fill="#242f38" x="841.8" y="1.5" width="256.2" height="24.65" shape-rendering="crispEdges"/><rect fill="#2c363f" x="1098" y="1.5" width="12.2" height="24.65" shape-rendering="crispEdges"/><rect fill="#2c363f" x="1110.2" y="1.5" width="97.6" height="24.65" shape-rendering="crispEdges"/><rect fill="#2c363f" x="1207.8" y="1.5" width="12.2" height="24.65" shape-rendering="crispEdges"/><rect fill="#1e1e1e" x="0" y="25.9" width="12.2" height="24.65" shape-rendering="crispEdges"/><rect fill="#1e1e1e" x="12.2" y="25.9" width="122" height="24.65" shape-rendering="crispEdges"/><rect fill="#1e1e1e" x="134.2" y="25.9" width="24.4" height="24.65" shape-rendering="crispEdges"/><rect fill="#1e1e1e" x="158.6" y="25.9" width="109.8" height="24.65" shape-rendering="crispEdges"/><rect fill="#1e1e1e" x="268.4" y="25.9" width="24.4" height="24.65" shape-rendering="crispEdges"/><rect fill="#1e1e1e" x="292.8" y="25.9" width="122" height="24.65" shape-rendering="crispEdges"/><rect fill="#1e1e1e" x="414.8" y="25.9" width="24.4" height="24.65" shape-rendering="crispEdges"/><rect fill="#1e1e1e" x="439.2" y="25.9" width="97.6" height="24.65" shape-rendering="crispEdges"/><rect fill="#1e1e1e" x="536.8" y="25.9" width="24.4" height="24.65" shape-rendering="crispEdges"/><rect fill="#1e1e1e" x="561.2" y="25.9" width="109.8" height="24.65" shape-rendering="crispEdges"/><rect fill="#1e1e1e" x="671" y="25.9" width="549" height="24.65" shape-rendering="crispEdges"/><rect fill="#1e1e1e" x="0" y="50.3" width="292.8" height="24.65" shape-rendering="crispEdges"/><rect fill="#1e1e1e" x="292.8" y="50.3" width="122" height="24.65" shape-rendering="crispEdges"/><rect fill="#1e1e1e" x="414.8" y="50.3" width="805.2" height="24.65" shape-rendering="crispEdges"/><rect fill="#1e1e1e" x="0" y="74.7" width="195.2" height="24.65" shape-rendering="crispEdges"/><rect fill="#1e1e1e" x="195.2" y="74.7" width="305" height="24.65" shape-rendering="crispEdges"/><rect fill="#1e1e1e" x="500.2" y="74.7" width="719.8" height="24.65" shape-rendering="crispEdges"/><rect fill="#1e1e1e" x="0" y="99.1" width="1220" height="24.65" shape-rendering="crispEdges"/><rect fill="#242f38" x="0" y="123.5" width="170.8" height="24.65" shape-rendering="crispEdges"/><rect fill="#242f38" x="170.8" y="123.5" width="170.8" height="24.65" shape-rendering="crispEdges"/><rect fill="#242f38" x="341.6" y="123.5" width="170.8" height="24.65" shape-rendering="crispEdges"/><rect fill="#242f38" x="512.4" y="123.5" width="170.8" height="24.65" shape-rendering="crispEdges"/><rect fill="#242f38" x="683.2" y="123.5" width="170.8" height="24.65" shape-rendering="crispEdges"/><rect fill="#242f38" x="854" y="123.5" width="170.8" height="24.65" shape-rendering="crispEdges"/><rect fill="#242f38" x="1024.8" y="123.5" width="170.8" height="24.65" shape-rendering="crispEdges"/><rect fill="#222a31" x="1195.6" y="123.5" width="24.4" height="24.65" shape-rendering="crispEdges"/><rect fill="#171717" x="0" y="147.9" width="12.2" height="24.65" shape-rendering="crispEdges"/><rect fill="#171717" x="12.2" y="147.9" width="61" height="24.65" shape-rendering="crispEdges"/><rect fill="#171717" x="73.2" y="147.9" width="97.6" height="24.65" shape-rendering="crispEdges"/><rect fill="#171717" x="170.8" y="147.9" width="12.2" height="24.65" shape-rendering="crispEdges"/><rect fill="#171717" x="183" y="147.9" width="61" height="24.65" shape-rendering="crispEdges"/><rect fill="#171717" x="244" y="147.9" width="97.6" height="24.65" shape-rendering="crispEdges"/><rect fill="#171717" x="341.6" y="147.9" width="12.2" height="24.65" shape-rendering="crispEdges"/><rect fill="#171717" x="353.8" y="147.9" width="61" height="24.65" shape-rendering="crispEdges"/><rect fill="#171717" x="414.8" y="147.9" width="97.6" height="24.65" shape-rendering="crispEdges"/><rect fill="#171717" x="512.4" y="147.9" width="12.2" height="24.65" shape-rendering="crispEdges"/><rect fill="#171717" x="524.6" y="147.9" width="61" height="24.65" shape-rendering="crispEdges"/><rect fill="#171717" x="585.6" y="147.9" width="97.6" height="24.65" shape-rendering="crispEdges"/><rect fill="#171717" x="683.2" y="147.9" width="12.2" height="24.65" shape-rendering="crispEdges"/><rect fill="#171717" x="695.4" y="147.9" width="61" height="24.65" shape-rendering="crispEdges"/><rect fill="#171717" x="756.4" y="147.9" width="97.6" height="24.65" shape-rendering="crispEdges"/><rect fill="#171717" x="854" y="147.9" width="12.2" height="24.65" shape-rendering="crispEdges"/><rect fill="#171717" x="866.2" y="147.9" width="61" height="24.65" shape-rendering="crispEdges"/><rect fill="#171717" x="927.2" y="147.9" width="97.6" height="24.65" shape-rendering="crispEdges"/><rect fill="#171717" x="1024.8" y="147.9" width="12.2" height="24.65" shape-rendering="crispEdges"/><rect fill="#171717" x="1037" y="147.9" width="61" height="24.65" shape-rendering="crispEdges"/><rect fill="#171717" x="1098" y="147.9" width="97.6" height="24.65" shape-rendering="crispEdges"/><rect fill="#181818" x="1195.6" y="147.9" width="24.4" height="24.65" shape-rendering="crispEdges"/><rect fill="#171717" x="0" y="172.3" width="170.8" height="24.65" shape-rendering="crispEdges"/><rect fill="#171717" x="170.8" y="172.3" width="170.8" height="24.65" shape-rendering="crispEdges"/><rect fill="#171717" x="341.6" y="172.3" width="170.8" height="24.65" shape-rendering="crispEdges"/><rect fill="#171717" x="512.4" y="172.3" width="170.8" height="24.65" shape-rendering="crispEdges"/><rect fill="#171717" x="683.2" y="172.3" width="170.8" height="24.65" shape-rendering="crispEdges"/><rect fill="#171717" x="854" y="172.3" width="170.8" height="24.65" shape-rendering="crispEdges"/><rect fill="#171717" x="1024.8" y="172.3" width="170.8" height="24.65" shape-rendering="crispEdges"/><rect fill="#181818" x="1195.6" y="172.3" width="24.4" height="24.65" shape-rendering="crispEdges"/><rect fill="#1e1e1e" x="0" y="196.7" width="1220" height="24.65" shape-rendering="crispEdges"/><rect fill="#1e1e1e" x="0" y="221.1" width="1220" height="24.65" shape-rendering="crispEdges"/><rect fill="#1e1e1e" x="0" y="245.5" width="1220" height="24.65" shape-rendering="crispEdges"/><rect fill="#1e1e1e" x="0" y="269.9" width="1220" height="24.65" shape-rendering="crispEdges"/><rect fill="#1e1e1e" x="0" y="294.3" width="1220" height="24.65" shape-rendering="crispEdges"/><rect fill="#1e1e1e" x="0" y="318.7" width="1220" height="24.65" shape-rendering="crispEdges"/><rect fill="#1e1e1e" x="0" y="343.1" width="1220" height="24.65" shape-rendering="crispEdges"/><rect fill="#1e1e1e" x="0" y="367.5" width="1220" height="24.65" shape-rendering="crispEdges"/><rect fill="#1e1e1e" x="0" y="391.9" width="1220" height="24.65" shape-rendering="crispEdges"/><rect fill="#1e1e1e" x="0" y="416.3" width="1220" height="24.65" shape-rendering="crispEdges"/><rect fill="#1e1e1e" x="0" y="440.7" width="1220" height="24.65" shape-rendering="crispEdges"/><rect fill="#1e1e1e" x="0" y="465.1" width="1220" height="24.65" shape-rendering="crispEdges"/><rect fill="#1e1e1e" x="0" y="489.5" width="1220" height="24.65" shape-rendering="crispEdges"/><rect fill="#1e1e1e" x="0" y="513.9" width="1220" height="24.65" shape-rendering="crispEdges"/><rect fill="#1e1e1e" x="0" y="538.3" width="1220" height="24.65" shape-rendering="crispEdges"/><rect fill="#1e1e1e" x="0" y="562.7" width="1220" height="24.65" shape-rendering="crispEdges"/><rect fill="#1e1e1e" x="0" y="587.1" width="1220" height="24.65" shape-rendering="crispEdges"/><rect fill="#1e1e1e" x="0" y="611.5" width="1220" height="24.65" shape-rendering="crispEdges"/><rect fill="#1e1e1e" x="0" y="635.9" width="1220" height="24.65" shape-rendering="crispEdges"/><rect fill="#1e1e1e" x="0" y="660.3" width="1220" height="24.65" shape-rendering="crispEdges"/><rect fill="#1e1e1e" x="0" y="684.7" width="1220" height="24.65" shape-rendering="crispEdges"/><rect fill="#242f38" x="0" y="709.1" width="61" height="24.65" shape-rendering="crispEdges"/><rect fill="#242f38" x="61" y="709.1" width="61" height="24.65" shape-rendering="crispEdges"/><rect fill="#242f38" x="122" y="709.1" width="36.6" height="24.65" shape-rendering="crispEdges"/><rect fill="#242f38" x="158.6" y="709.1" width="61" height="24.65" shape-rendering="crispEdges"/><rect fill="#242f38" x="219.6" y="709.1" width="61" height="24.65" shape-rendering="crispEdges"/><rect fill="#242f38" x="280.6" y="709.1" width="109.8" height="24.65" shape-rendering="crispEdges"/><rect fill="#242f38" x="390.4" y="709.1" width="36.6" height="24.65" shape-rendering="crispEdges"/><rect fill="#242f38" x="427" y="709.1" width="48.8" height="24.65" shape-rendering="crispEdges"/><rect fill="#242f38" x="475.8" y="709.1" width="36.6" height="24.65" shape-rendering="crispEdges"/><rect fill="#242f38" x="512.4" y="709.1" width="85.4" height="24.65" shape-rendering="crispEdges"/><rect fill="#242f38" x="597.8" y="709.1" width="36.6" height="24.65" shape-rendering="crispEdges"/><rect fill="#242f38" x="634.4" y="709.1" width="73.2" height="24.65" shape-rendering="crispEdges"/><rect fill="#242f38" x="707.6" y="709.1" width="36.6" height="24.65" shape-rendering="crispEdges"/><rect fill="#242f38" x="744.2" y="709.1" width="109.8" height="24.65" shape-rendering="crispEdges"/><rect fill="#242f38" x="854" y="709.1" width="36.6" height="24.65" shape-rendering="crispEdges"/><rect fill="#242f38" x="890.6" y="709.1" width="170.8" height="24.65" shape-rendering="crispEdges"/><rect fill="#242f38" x="1061.4" y="709.1" width="12.2" height="24.65" shape-rendering="crispEdges"/><rect fill="#242f38" x="1073.6" y="709.1" width="12.2" height="24.65" shape-rendering="crispEdges"/><rect fill="#242f38" x="1085.8" y="709.1" width="24.4" height="24.65" shape-rendering="crispEdges"/><rect fill="#242f38" x="1110.2" y="709.1" width="97.6" height="24.65" shape-rendering="crispEdges"/><rect fill="#242f38" x="1207.8" y="709.1" width="12.2" height="24.65" shape-rendering="crispEdges"/>
    <g class="terminal-matrix">
    <text class="terminal-r2" x="12.2" y="20" textLength="12.2" clip-path="url(#terminal-line-0)">⭘</text><text class="terminal-r2" x="353.8" y="20" textLength="134.2" clip-path="url(#terminal-line-0)">Family&#160;Room</text><text class="terminal-r3" x="488" y="20" textLength="36.6" clip-path="url(#terminal-line-0)">&#160;—&#160;</text><text class="terminal-r3" x="524.6" y="20" textLength="317.2" clip-path="url(#terminal-line-0)">[&#160;]&#160;other&#160;rooms&#160;·&#160;1–5&#160;tabs</text><text class="terminal-r4" x="1110.2" y="20" textLength="97.6" clip-path="url(#terminal-line-0)">01:04:34</text><text class="terminal-r1" x="1220" y="20" textLength="12.2" clip-path="url(#terminal-line-0)">
</text><text class="terminal-r5" x="12.2" y="44.4" textLength="122" clip-path="url(#terminal-line-1)">1&#160;Overview</text><text class="terminal-r5" x="158.6" y="44.4" textLength="109.8" clip-path="url(#terminal-line-1)">2&#160;Climate</text><text class="terminal-r2" x="292.8" y="44.4" textLength="122" clip-path="url(#terminal-line-1)">3&#160;Schedule</text><text class="terminal-r5" x="439.2" y="44.4" textLength="97.6" clip-path="url(#terminal-line-1)">4&#160;Energy</text><text class="terminal-r5" x="561.2" y="44.4" textLength="109.8" clip-path="url(#terminal-line-1)">5&#160;Devices</text><text class="terminal-r1" x="1220" y="44.4" textLength="12.2" clip-path="url(#terminal-line-1)">
</text><text class="terminal-r6" x="0" y="68.8" textLength="292.8" clip-path="url(#terminal-line-2)">━━━━━━━━━━━━━━━━━━━━━━━╸</text><text class="terminal-r7" x="292.8" y="68.8" textLength="122" clip-path="url(#terminal-line-2)">━━━━━━━━━━</text><text class="terminal-r6" x="414.8" y="68.8" textLength="805.2" clip-path="url(#terminal-line-2)">╺━━━━━━━━━━━━━━━━━━━━━━━━━━━━━━━━━━━━━━━━━━━━━━━━━━━━━━━━━━━━━━━━━</text><text class="terminal-r1" x="1220" y="68.8" textLength="12.2" clip-path="url(#terminal-line-2)">
</text><text class="terminal-r8" x="0" y="93.2" textLength="195.2" clip-path="url(#terminal-line-3)">Schedules&#160;paused</text><text class="terminal-r9" x="195.2" y="93.2" textLength="305" clip-path="url(#terminal-line-3)">&#160;&#160;resume&#160;from&#160;Home&#160;with&#160;P</text><text class="terminal-r1" x="1220" y="93.2" textLength="12.2" clip-path="url(#terminal-line-3)">
</text><text class="terminal-r1" x="1220" y="117.6" textLength="12.2" clip-path="url(#terminal-line-4)">
</text><text class="terminal-r10" x="0" y="142" textLength="170.8" clip-path="url(#terminal-line-5)">&#160;Mon&#160;&#160;&#160;&#160;&#160;&#160;&#160;&#160;&#160;&#160;</text><text class="terminal-r10" x="170.8" y="142" textLength="170.8" clip-path="url(#terminal-line-5)">&#160;Tue&#160;&#160;&#160;&#160;&#160;&#160;&#160;&#160;&#160;&#160;</text><text class="terminal-r10" x="341.6" y="142" textLength="170.8" clip-path="url(#terminal-line-5)">&#160;Wed&#160;&#160;&#160;&#160;&#160;&#160;&#160;&#160;&#160;&#160;</text><text class="terminal-r10" x="512.4" y="142" textLength="170.8" clip-path="url(#terminal-line-5)">&#160;Thu&#160;&#160;&#160;&#160;&#160;&#160;&#160;&#160;&#160;&#160;</text><text class="terminal-r10" x="683.2" y="142" textLength="170.8" clip-path="url(#terminal-line-5)">&#160;Fri&#160;&#160;&#160;&#160;&#160;&#160;&#160;&#160;&#160;&#160;</text><text class="terminal-r10" x="854" y="142" textLength="170.8" clip-path="url(#terminal-line-5)">&#160;Sat&#160;&#160;&#160;&#160;&#160;&#160;&#160;&#160;&#160;&#160;</text><text class="terminal-r10" x="1024.8" y="142" textLength="170.8" clip-path="url(#terminal-line-5)">&#160;Sun&#160;&#160;&#160;&#160;&#160;&#160;&#160;&#160;&#160;&#160;</text><text class="terminal-r1" x="1220" y="142" textLength="12.2" clip-path="url(#terminal-line-5)">
</text><text class="terminal-r10" x="12.2" y="166.4" textLength="61" clip-path="url(#terminal-line-6)">23:00</text><text class="terminal-r10" x="183" y="166.4" textLength="61" clip-path="url(#terminal-line-6)">23:00</text><text class="terminal-r10" x="353.8" y="166.4" textLength="61" clip-path="url(#terminal-line-6)">23:00</text><text class="terminal-r10" x="524.6" y="166.4" textLength="61" clip-path="url(#terminal-line-6)">23:00</text><text class="terminal-r10" x="695.4" y="166.4" textLength="61" clip-path="url(#terminal-line-6)">23:00</text><text class="terminal-r10" x="866.2" y="166.4" textLength="61" clip-path="url(#terminal-line-6)">23:00</text><text class="terminal-r10" x="1037" y="166.4" textLength="61" clip-path="url(#terminal-line-6)">23:00</text><text class="terminal-r1" x="1220" y="166.4" textLength="12.2" clip-path="url(#terminal-line-6)">
</text><text class="terminal-r2" x="0" y="190.8" textLength="170.8" clip-path="url(#terminal-line-7)">&#160;Off&#160;&#160;&#160;&#160;&#160;&#160;&#160;&#160;&#160;&#160;</text><text class="terminal-r2" x="170.8" y="190.8" textLength="170.8" clip-path="url(#terminal-line-7)">&#160;Off&#160;&#160;&#160;&#160;&#160;&#160;&#160;&#160;&#160;&#160;</text><text class="terminal-r2" x="341.6" y="190.8" textLength="170.8" clip-path="url(#terminal-line-7)">&#160;Off&#160;&#160;&#160;&#160;&#160;&#160;&#160;&#160;&#160;&#160;</text><text class="terminal-r2" x="512.4" y="190.8" textLength="170.8" clip-path="url(#terminal-line-7)">&#160;Off&#160;&#160;&#160;&#160;&#160;&#160;&#160;&#160;&#160;&#160;</text><text class="terminal-r2" x="683.2" y="190.8" textLength="170.8" clip-path="url(#terminal-line-7)">&#160;Off&#160;&#160;&#160;&#160;&#160;&#160;&#160;&#160;&#160;&#160;</text><text class="terminal-r2" x="854" y="190.8" textLength="170.8" clip-path="url(#terminal-line-7)">&#160;Off&#160;&#160;&#160;&#160;&#160;&#160;&#160;&#160;&#160;&#160;</text><text class="terminal-r2" x="1024.8" y="190.8" textLength="170.8" clip-path="url(#terminal-line-7)">&#160;Off&#160;&#160;&#160;&#160;&#160;&#160;&#160;&#160;&#160;&#160;</text><text class="terminal-r1" x="1220" y="190.8" textLength="12.2" clip-path="url(#terminal-line-7)">
</text><text class="terminal-r1" x="1220" y="215.2" textLength="12.2" clip-path="url(#terminal-line-8)">
</text><text class="terminal-r1" x="1220" y="239.6" textLength="12.2" clip-path="url(#terminal-line-9)">
</text><text class="terminal-r1" x="1220" y="264" textLength="12.2" clip-path="url(#terminal-line-10)">
</text><text class="terminal-r1" x="1220" y="288.4" textLength="12.2" clip-path="url(#terminal-line-11)">
</text><text class="terminal-r1" x="1220" y="312.8" textLength="12.2" clip-path="url(#terminal-line-12)">
</text><text class="terminal-r1" x="1220" y="337.2" textLength="12.2" clip-path="url(#terminal-line-13)">
</text><text class="terminal-r1" x="1220" y="361.6" textLength="12.2" clip-path="url(#terminal-line-14)">
</text><text class="terminal-r1" x="1220" y="386" textLength="12.2" clip-path="url(#terminal-line-15)">
</text><text class="terminal-r1" x="1220" y="410.4" textLength="12.2" clip-path="url(#terminal-line-16)">
</text><text class="terminal-r1" x="1220" y="434.8" textLength="12.2" clip-path="url(#terminal-line-17)">
</text><text class="terminal-r1" x="1220" y="459.2" textLength="12.2" clip-path="url(#terminal-line-18)">
</text><text class="terminal-r1" x="1220" y="483.6" textLength="12.2" clip-path="url(#terminal-line-19)">
</text><text class="terminal-r1" x="1220" y="508" textLength="12.2" clip-path="url(#terminal-line-20)">
</text><text class="terminal-r1" x="1220" y="532.4" textLength="12.2" clip-path="url(#terminal-line-21)">
</text><text class="terminal-r1" x="1220" y="556.8" textLength="12.2" clip-path="url(#terminal-line-22)">
</text><text class="terminal-r1" x="1220" y="581.2" textLength="12.2" clip-path="url(#terminal-line-23)">
</text><text class="terminal-r1" x="1220" y="605.6" textLength="12.2" clip-path="url(#terminal-line-24)">
</text><text class="terminal-r1" x="1220" y="630" textLength="12.2" clip-path="url(#terminal-line-25)">
</text><text class="terminal-r1" x="1220" y="654.4" textLength="12.2" clip-path="url(#terminal-line-26)">
</text><text class="terminal-r1" x="1220" y="678.8" textLength="12.2" clip-path="url(#terminal-line-27)">
</text><text class="terminal-r1" x="1220" y="703.2" textLength="12.2" clip-path="url(#terminal-line-28)">
</text><text class="terminal-r11" x="0" y="727.6" textLength="61" clip-path="url(#terminal-line-29)">&#160;esc&#160;</text><text class="terminal-r2" x="61" y="727.6" textLength="61" clip-path="url(#terminal-line-29)">Back&#160;</text><text class="terminal-r11" x="122" y="727.6" textLength="36.6" clip-path="url(#terminal-line-29)">&#160;m&#160;</text><text class="terminal-r2" x="158.6" y="727.6" textLength="61" clip-path="url(#terminal-line-29)">Mode&#160;</text><text class="terminal-r11" x="219.6" y="727.6" textLength="61" clip-path="url(#terminal-line-29)">&#160;+/−&#160;</text><text class="terminal-r2" x="280.6" y="727.6" textLength="109.8" clip-path="url(#terminal-line-29)">Setpoint&#160;</text><text class="terminal-r11" x="390.4" y="727.6" textLength="36.6" clip-path="url(#terminal-line-29)">&#160;f&#160;</text><text class="terminal-r2" x="427" y="727.6" textLength="48.8" clip-path="url(#terminal-line-29)">Fan&#160;</text><text class="terminal-r11" x="475.8" y="727.6" textLength="36.6" clip-path="url(#terminal-line-29)">&#160;v&#160;</text><text class="terminal-r2" x="512.4" y="727.6" textLength="85.4" clip-path="url(#terminal-line-29)">Louver&#160;</text><text class="terminal-r11" x="597.8" y="727.6" textLength="36.6" clip-path="url(#terminal-line-29)">&#160;l&#160;</text><text class="terminal-r2" x="634.4" y="727.6" textLength="73.2" clip-path="url(#terminal-line-29)">Light&#160;</text><text class="terminal-r11" x="707.6" y="727.6" textLength="36.6" clip-path="url(#terminal-line-29)">&#160;s&#160;</text><text class="terminal-r2" x="744.2" y="727.6" textLength="109.8" clip-path="url(#terminal-line-29)">Settings&#160;</text><text class="terminal-r11" x="854" y="727.6" textLength="36.6" clip-path="url(#terminal-line-29)">&#160;r&#160;</text><text class="terminal-r2" x="890.6" y="727.6" textLength="170.8" clip-path="url(#terminal-line-29)">Raw&#160;telemetry&#160;</text><text class="terminal-r12" x="1073.6" y="727.6" textLength="12.2" clip-path="url(#terminal-line-29)">▏</text><text class="terminal-r11" x="1085.8" y="727.6" textLength="24.4" clip-path="url(#terminal-line-29)">^p</text><text class="terminal-r2" x="1110.2" y="727.6" textLength="97.6" clip-path="url(#terminal-line-29)">&#160;palette</text>
    </g>
    </g>
</svg>
